<svg xmlns="http://www.w3.org/2000/svg" width="27" height="27" viewBox="0 0 27 27" fill="none">
<path d="M13.5 0C20.9562 0 27 6.04378 27 13.5C27 20.9562 20.9562 27 13.5 27C6.04378 27 0 20.9562 0 13.5C0 6.04378 6.04378 0 13.5 0ZM16.3282 4.69125C16.1224 4.59 15.9165 4.69125 15.8659 4.89628C15.8144 4.94775 15.8144 4.99922 15.8144 5.10131V5.8185L15.8228 5.90625C15.8669 6.07983 15.9736 6.231 16.1224 6.33066C20.1336 7.76503 22.1906 12.22 20.6989 16.1629C19.9277 18.3144 18.2309 19.9522 16.1224 20.7208C15.9165 20.8229 15.8144 20.9765 15.8144 21.233V21.9502L15.8186 22.0244C15.8266 22.1054 15.8605 22.1817 15.9152 22.242C15.9699 22.3024 16.0425 22.3435 16.1224 22.3594C16.1738 22.3594 16.2768 22.3594 16.3282 22.3088C17.4855 21.9474 18.5599 21.3606 19.4894 20.5823C20.419 19.804 21.1854 18.8495 21.7446 17.7737C22.3037 16.698 22.6446 15.5223 22.7475 14.3143C22.8504 13.1063 22.7133 11.8898 22.3442 10.735C21.4194 7.81566 19.1565 5.61263 16.3282 4.69125ZM10.8776 4.64062C10.8262 4.64062 10.7232 4.64062 10.6718 4.69125C9.51449 5.05265 8.44014 5.6394 7.51058 6.41771C6.58101 7.19602 5.81458 8.15052 5.25542 9.22626C4.69626 10.302 4.35541 11.4777 4.25251 12.6857C4.1496 13.8937 4.28667 15.1102 4.65581 16.265C5.58056 19.1337 7.79203 21.3359 10.6718 22.2573C10.8776 22.3594 11.0835 22.2573 11.1341 22.0522C11.1856 22.0016 11.1856 21.9493 11.1856 21.8472V21.13L11.1772 21.0625C11.1417 20.9199 11.0093 20.7571 10.8776 20.6693C6.86644 19.235 4.80937 14.78 6.30113 10.8371C7.07231 8.68556 8.76909 7.04784 10.8776 6.27919C11.0835 6.17709 11.1856 6.02353 11.1856 5.76703V5.04984L11.1814 4.97559C11.1734 4.89457 11.1395 4.81827 11.0848 4.75796C11.0301 4.69765 10.9575 4.65651 10.8776 4.64062ZM13.8603 7.3035H13.0883L13.014 7.31025C12.8453 7.344 12.7221 7.48913 12.6765 7.71356V8.89144L12.5018 8.91844C11.0607 9.17494 10.1579 10.1697 10.1579 11.4008C10.1579 13.0899 11.1856 13.7557 13.3456 14.0122C14.7859 14.2678 15.2483 14.5758 15.2483 15.3951C15.2483 16.2135 14.5285 16.7771 13.5515 16.7771C12.2141 16.7771 11.7517 16.2143 11.5973 15.4457C11.5467 15.2415 11.3915 15.1386 11.2371 15.1386H10.3629L10.2963 15.1445C10.2131 15.1579 10.1376 15.201 10.0837 15.2659C10.0299 15.3307 10.0014 15.4129 10.0035 15.4972V15.5478L10.0313 15.6997C10.276 16.9012 11.0995 17.7609 12.7288 18.0065V19.2358L12.7356 19.3101C12.7693 19.4771 12.9153 19.6003 13.1406 19.645H13.9118L13.986 19.6383C14.1547 19.6045 14.2779 19.4594 14.3235 19.2358V18.0056L14.4982 17.9719C15.9435 17.6664 16.8944 16.621 16.8944 15.2913C16.8944 13.4992 15.8144 12.8849 13.6544 12.6284C12.1112 12.4234 11.8032 12.0142 11.8032 11.297C11.8032 10.5798 12.3179 10.1191 13.3456 10.1191C14.2712 10.1191 14.7859 10.4262 15.0424 11.1949C15.0691 11.2692 15.118 11.3336 15.1824 11.3793C15.2468 11.425 15.3237 11.4498 15.4027 11.4505H16.2253L16.292 11.4455C16.3755 11.4322 16.4513 11.389 16.5053 11.324C16.5593 11.2589 16.5879 11.1765 16.5856 11.0919V11.0413L16.5544 10.8953C16.4277 10.3709 16.1388 9.89972 15.7289 9.54889C15.319 9.19805 14.8089 8.98541 14.2712 8.94122V7.71356L14.2644 7.63931C14.2307 7.47141 14.0856 7.34822 13.8603 7.3035Z" fill="#2775CA"/>
</svg>